<?xml version="1.0" standalone="no"?>
<!DOCTYPE svg PUBLIC "-//W3C//DTD SVG 20010904//EN"
 "http://www.w3.org/TR/2001/REC-SVG-20010904/DTD/svg10.dtd">
<svg version="1.0" xmlns="http://www.w3.org/2000/svg"
 width="582.000000pt" height="206.000000pt" viewBox="0 0 582.000000 206.000000"
 preserveAspectRatio="xMidYMid meet">
<metadata>
Created by potrace 1.16, written by Peter Selinger 2001-2019
</metadata>
<g transform="translate(0.000000,206.000000) scale(0.100000,-0.100000)"
fill="#000000" stroke="none">
<path d="M10 1045 l0 -1015 2885 0 2885 0 0 1015 0 1015 -2885 0 -2885 0 0
-1015z m5680 5 l0 -920 -2790 0 -2790 0 0 920 0 920 2790 0 2790 0 0 -920z"/>
<path d="M4855 1589 c-193 -32 -322 -149 -381 -344 -26 -84 -26 -306 0 -390
56 -185 186 -309 363 -345 87 -18 264 -8 335 19 85 33 170 101 222 179 l45 67
-52 27 c-29 15 -56 27 -62 28 -5 0 -23 -20 -38 -45 -70 -110 -177 -167 -312
-168 -186 0 -326 118 -366 311 -17 81 -7 254 18 318 64 163 189 241 369 232
132 -7 223 -61 289 -172 9 -15 15 -15 73 5 34 11 62 26 62 33 0 22 -56 100
-100 140 -105 95 -285 135 -465 105z"/>
<path d="M380 1388 c44 -106 141 -346 218 -533 l138 -340 75 -3 c70 -3 76 -1
86 20 23 51 423 1035 423 1041 0 4 -33 7 -74 7 l-73 0 -155 -397 c-86 -219
-166 -431 -179 -471 l-23 -72 -33 92 c-18 51 -99 263 -180 470 l-148 378 -77
0 -76 0 78 -192z"/>
<path d="M2780 1045 l0 -535 70 0 70 0 0 535 0 535 -70 0 -70 0 0 -535z"/>
</g>
</svg>
