<?xml version="1.0" standalone="no"?>
<!DOCTYPE svg PUBLIC "-//W3C//DTD SVG 20010904//EN"
 "http://www.w3.org/TR/2001/REC-SVG-20010904/DTD/svg10.dtd">
<svg version="1.0" xmlns="http://www.w3.org/2000/svg"
 width="347.000000pt" height="287.000000pt" viewBox="0 0 347.000000 287.000000"
 preserveAspectRatio="xMidYMid meet">
<metadata>
Created by potrace 1.16, written by Peter Selinger 2001-2019
</metadata>
<g transform="translate(0.000000,287.000000) scale(0.100000,-0.100000)"
fill="#000000" stroke="none">
<path d="M1695 2720 c-160 -22 -305 -98 -430 -224 -76 -76 -98 -106 -137 -186
-67 -135 -82 -201 -82 -345 0 -94 5 -137 22 -200 63 -223 204 -392 407 -490
307 -148 656 -82 891 168 120 127 188 276 202 442 33 381 -196 715 -558 814
-86 24 -228 34 -315 21z m250 -45 c348 -73 585 -364 585 -718 0 -283 -160
-534 -417 -653 -97 -46 -180 -64 -296 -64 -129 0 -221 21 -337 78 -79 38 -109
60 -181 132 -75 75 -94 100 -137 191 -141 289 -91 606 129 828 174 176 423
254 654 206z"/>
<path d="M1720 2650 c-255 -31 -496 -229 -571 -470 -60 -192 -36 -409 63 -578
74 -127 233 -254 378 -303 91 -30 270 -38 372 -15 317 71 538 348 538 676 0
420 -362 740 -780 690z m269 -632 c94 -163 171 -302 171 -307 0 -8 -73 -11
-225 -11 -124 0 -225 2 -225 4 0 2 11 24 25 47 l24 44 119 5 119 5 -124 213
-123 214 27 48 c15 27 31 46 34 42 4 -4 84 -141 178 -304z m-149 30 c52 -90
102 -178 113 -195 l19 -33 -59 0 -58 0 -54 95 c-29 52 -56 95 -60 95 -3 0 -60
-95 -126 -210 l-120 -209 -58 -1 -58 0 33 58 c152 267 324 562 329 562 3 0 48
-73 99 -162z m-68 -112 l26 -44 -58 -101 -58 -101 248 0 248 0 27 -46 c15 -25
25 -48 22 -50 -2 -2 -164 -3 -359 -2 l-356 3 111 193 c61 105 114 192 117 192
3 0 17 -20 32 -44z"/>
<path d="M475 943 c-11 -3 -24 -8 -28 -12 -10 -10 248 -762 265 -773 16 -10
99 -10 114 0 18 11 275 765 264 776 -12 12 -87 11 -102 -2 -7 -6 -58 -146
-113 -311 -55 -165 -102 -300 -105 -300 -3 0 -50 135 -105 300 -55 165 -105
304 -110 309 -14 12 -56 19 -80 13z"/>
<path d="M1790 941 l-25 -7 -3 -384 c-2 -300 1 -385 10 -392 18 -11 66 -10 89
2 18 10 19 25 19 383 0 205 -4 377 -8 383 -10 15 -52 23 -82 15z"/>
<path d="M2825 937 c-167 -44 -245 -169 -245 -392 0 -271 115 -396 363 -396
94 0 174 21 214 55 28 24 28 24 10 60 -9 20 -22 36 -29 36 -7 0 -40 -11 -73
-25 -111 -46 -224 -30 -291 39 -53 56 -69 113 -68 246 0 91 4 112 26 162 39
84 86 112 197 116 70 3 96 0 140 -17 60 -24 73 -20 90 30 8 24 7 32 -10 47
-10 10 -36 24 -57 31 -55 19 -208 23 -267 8z"/>
</g>
</svg>
